<?xml version="1.0" encoding="utf-8"?><svg viewBox="0 0 357 248" xmlns="http://www.w3.org/2000/svg" xmlns:xlink="http://www.w3.org/1999/xlink"><style>:root>svg{display:none}:root>svg:target{display:block}</style><svg fill="none" viewBox="0 0 357 248" id="wave" xmlns="http://www.w3.org/2000/svg"><g stroke="#4E4E65" stroke-width="2" stroke-miterlimit="10"><path d="M0 1c17.85 0 17.85 11.5 35.7 11.5S53.54 1 71.39 1c17.85 0 17.85 11.5 35.69 11.5 17.84 0 17.85-11.5 35.69-11.5 17.84 0 17.85 11.5 35.7 11.5S196.32 1 214.16 1C232 1 232 12.5 249.86 12.5c17.86 0 17.85-11.5 35.7-11.5s17.85 11.5 35.7 11.5S339.11 1 357 1M0 20.5C17.85 20.5 17.85 32 35.7 32s17.84-11.5 35.69-11.5c17.85 0 17.85 11.5 35.69 11.5 17.84 0 17.85-11.5 35.69-11.5 17.84 0 17.85 11.5 35.7 11.5s17.85-11.5 35.69-11.5C232 20.5 232 32 249.86 32c17.86 0 17.85-11.5 35.7-11.5S303.41 32 321.26 32 339.11 20.5 357 20.5M0 40c17.85 0 17.85 11.5 35.7 11.5S53.54 40 71.39 40c17.85 0 17.85 11.5 35.69 11.5 17.84 0 17.85-11.5 35.69-11.5 17.84 0 17.85 11.5 35.7 11.5S196.32 40 214.16 40C232 40 232 51.5 249.86 51.5c17.86 0 17.85-11.5 35.7-11.5s17.85 11.5 35.7 11.5S339.11 40 357 40M0 59.5C17.85 59.5 17.85 71 35.7 71s17.84-11.5 35.69-11.5c17.85 0 17.85 11.5 35.69 11.5 17.84 0 17.85-11.5 35.69-11.5 17.84 0 17.85 11.5 35.7 11.5s17.85-11.5 35.69-11.5C232 59.5 232 71 249.86 71c17.86 0 17.85-11.5 35.7-11.5S303.41 71 321.26 71 339.11 59.5 357 59.5M0 79c17.85 0 17.85 11.5 35.7 11.5S53.54 79 71.39 79c17.85 0 17.85 11.5 35.69 11.5 17.84 0 17.85-11.5 35.69-11.5 17.84 0 17.85 11.5 35.7 11.5S196.32 79 214.16 79C232 79 232 90.5 249.86 90.5c17.86 0 17.85-11.5 35.7-11.5s17.85 11.5 35.7 11.5S339.11 79 357 79M0 98.5c17.85 0 17.85 11.5 35.7 11.5s17.84-11.5 35.69-11.5c17.85 0 17.85 11.5 35.69 11.5 17.84 0 17.85-11.5 35.69-11.5 17.84 0 17.85 11.5 35.7 11.5s17.85-11.5 35.69-11.5C232 98.5 232 110 249.86 110c17.86 0 17.85-11.5 35.7-11.5s17.85 11.5 35.7 11.5S339.11 98.5 357 98.5M0 118c17.85 0 17.85 11.5 35.7 11.5S53.54 118 71.39 118c17.85 0 17.85 11.5 35.69 11.5 17.84 0 17.85-11.5 35.69-11.5 17.84 0 17.85 11.5 35.7 11.5s17.85-11.5 35.69-11.5c17.84 0 17.84 11.5 35.7 11.5 17.86 0 17.85-11.5 35.7-11.5s17.85 11.5 35.7 11.5S339.11 118 357 118M0 137.5c17.85 0 17.85 11.5 35.7 11.5s17.84-11.5 35.69-11.5c17.85 0 17.85 11.5 35.69 11.5 17.84 0 17.85-11.5 35.69-11.5 17.84 0 17.85 11.5 35.7 11.5s17.85-11.5 35.69-11.5c17.84 0 17.84 11.5 35.7 11.5 17.86 0 17.85-11.5 35.7-11.5s17.85 11.5 35.7 11.5 17.85-11.5 35.74-11.5M0 157c17.85 0 17.85 11.5 35.7 11.5S53.54 157 71.39 157c17.85 0 17.85 11.5 35.69 11.5 17.84 0 17.85-11.5 35.69-11.5 17.84 0 17.85 11.5 35.7 11.5s17.85-11.5 35.69-11.5c17.84 0 17.84 11.5 35.7 11.5 17.86 0 17.85-11.5 35.7-11.5s17.85 11.5 35.7 11.5S339.11 157 357 157M0 176.5c17.85 0 17.85 11.5 35.7 11.5s17.84-11.5 35.69-11.5c17.85 0 17.85 11.5 35.69 11.5 17.84 0 17.85-11.5 35.69-11.5 17.84 0 17.85 11.5 35.7 11.5s17.85-11.5 35.69-11.5c17.84 0 17.84 11.5 35.7 11.5 17.86 0 17.85-11.5 35.7-11.5s17.85 11.5 35.7 11.5 17.85-11.5 35.74-11.5M0 196c17.85 0 17.85 11.5 35.7 11.5S53.54 196 71.39 196c17.85 0 17.85 11.5 35.69 11.5 17.84 0 17.85-11.5 35.69-11.5 17.84 0 17.85 11.5 35.7 11.5s17.85-11.5 35.69-11.5c17.84 0 17.84 11.5 35.7 11.5 17.86 0 17.85-11.5 35.7-11.5s17.85 11.5 35.7 11.5S339.11 196 357 196M0 215.5c17.85 0 17.85 11.5 35.7 11.5s17.84-11.5 35.69-11.5c17.85 0 17.85 11.5 35.69 11.5 17.84 0 17.85-11.5 35.69-11.5 17.84 0 17.85 11.5 35.7 11.5s17.85-11.5 35.69-11.5c17.84 0 17.84 11.5 35.7 11.5 17.86 0 17.85-11.5 35.7-11.5s17.85 11.5 35.7 11.5 17.85-11.5 35.74-11.5M0 235c17.85 0 17.85 11.5 35.7 11.5S53.54 235 71.39 235c17.85 0 17.85 11.5 35.69 11.5 17.84 0 17.85-11.5 35.69-11.5 17.84 0 17.85 11.5 35.7 11.5s17.85-11.5 35.69-11.5c17.84 0 17.84 11.5 35.7 11.5 17.86 0 17.85-11.5 35.7-11.5s17.85 11.5 35.7 11.5S339.11 235 357 235"/></g></svg></svg>