<svg width="357" height="248" viewBox="0 0 357 248" fill="none" xmlns="http://www.w3.org/2000/svg">
<g id="IMAGE">
<path id="Vector" d="M0 1C17.85 1 17.85 12.5 35.7 12.5C53.55 12.5 53.54 1 71.39 1C89.24 1 89.24 12.5 107.08 12.5C124.92 12.5 124.93 1 142.77 1C160.61 1 160.62 12.5 178.47 12.5C196.32 12.5 196.32 1 214.16 1C232 1 232 12.5 249.86 12.5C267.72 12.5 267.71 1 285.56 1C303.41 1 303.41 12.5 321.26 12.5C339.11 12.5 339.11 1 357 1" stroke="#4E4E65" stroke-width="2" stroke-miterlimit="10"/>
<path id="Vector_2" d="M0 20.5C17.85 20.5 17.85 32 35.7 32C53.55 32 53.54 20.5 71.39 20.5C89.24 20.5 89.24 32 107.08 32C124.92 32 124.93 20.5 142.77 20.5C160.61 20.5 160.62 32 178.47 32C196.32 32 196.32 20.5 214.16 20.5C232 20.5 232 32 249.86 32C267.72 32 267.71 20.5 285.56 20.5C303.41 20.5 303.41 32 321.26 32C339.11 32 339.11 20.5 357 20.5" stroke="#4E4E65" stroke-width="2" stroke-miterlimit="10"/>
<path id="Vector_3" d="M0 40C17.85 40 17.85 51.5 35.7 51.5C53.55 51.5 53.54 40 71.39 40C89.24 40 89.24 51.5 107.08 51.5C124.92 51.5 124.93 40 142.77 40C160.61 40 160.62 51.5 178.47 51.5C196.32 51.5 196.32 40 214.16 40C232 40 232 51.5 249.86 51.5C267.72 51.5 267.71 40 285.56 40C303.41 40 303.41 51.5 321.26 51.5C339.11 51.5 339.11 40 357 40" stroke="#4E4E65" stroke-width="2" stroke-miterlimit="10"/>
<path id="Vector_4" d="M0 59.5C17.85 59.5 17.85 71 35.7 71C53.55 71 53.54 59.5 71.39 59.5C89.24 59.5 89.24 71 107.08 71C124.92 71 124.93 59.5 142.77 59.5C160.61 59.5 160.62 71 178.47 71C196.32 71 196.32 59.5 214.16 59.5C232 59.5 232 71 249.86 71C267.72 71 267.71 59.5 285.56 59.5C303.41 59.5 303.41 71 321.26 71C339.11 71 339.11 59.5 357 59.5" stroke="#4E4E65" stroke-width="2" stroke-miterlimit="10"/>
<path id="Vector_5" d="M0 79C17.85 79 17.85 90.5 35.7 90.5C53.55 90.5 53.54 79 71.39 79C89.24 79 89.24 90.5 107.08 90.5C124.92 90.5 124.93 79 142.77 79C160.61 79 160.62 90.5 178.47 90.5C196.32 90.5 196.32 79 214.16 79C232 79 232 90.5 249.86 90.5C267.72 90.5 267.71 79 285.56 79C303.41 79 303.41 90.5 321.26 90.5C339.11 90.5 339.11 79 357 79" stroke="#4E4E65" stroke-width="2" stroke-miterlimit="10"/>
<path id="Vector_6" d="M0 98.5C17.85 98.5 17.85 110 35.7 110C53.55 110 53.54 98.5 71.39 98.5C89.24 98.5 89.24 110 107.08 110C124.92 110 124.93 98.5 142.77 98.5C160.61 98.5 160.62 110 178.47 110C196.32 110 196.32 98.5 214.16 98.5C232 98.5 232 110 249.86 110C267.72 110 267.71 98.5 285.56 98.5C303.41 98.5 303.41 110 321.26 110C339.11 110 339.11 98.5 357 98.5" stroke="#4E4E65" stroke-width="2" stroke-miterlimit="10"/>
<path id="Vector_7" d="M0 118C17.85 118 17.85 129.5 35.7 129.5C53.55 129.5 53.54 118 71.39 118C89.24 118 89.24 129.5 107.08 129.5C124.92 129.5 124.93 118 142.77 118C160.61 118 160.62 129.5 178.47 129.5C196.32 129.5 196.32 118 214.16 118C232 118 232 129.5 249.86 129.5C267.72 129.5 267.71 118 285.56 118C303.41 118 303.41 129.5 321.26 129.5C339.11 129.5 339.11 118 357 118" stroke="#4E4E65" stroke-width="2" stroke-miterlimit="10"/>
<path id="Vector_8" d="M0 137.5C17.85 137.5 17.85 149 35.7 149C53.55 149 53.54 137.5 71.39 137.5C89.24 137.5 89.24 149 107.08 149C124.92 149 124.93 137.5 142.77 137.5C160.61 137.5 160.62 149 178.47 149C196.32 149 196.32 137.5 214.16 137.5C232 137.5 232 149 249.86 149C267.72 149 267.71 137.5 285.56 137.5C303.41 137.5 303.41 149 321.26 149C339.11 149 339.11 137.5 357 137.5" stroke="#4E4E65" stroke-width="2" stroke-miterlimit="10"/>
<path id="Vector_9" d="M0 157C17.85 157 17.85 168.5 35.7 168.5C53.55 168.5 53.54 157 71.39 157C89.24 157 89.24 168.5 107.08 168.5C124.92 168.5 124.93 157 142.77 157C160.61 157 160.62 168.5 178.47 168.5C196.32 168.5 196.32 157 214.16 157C232 157 232 168.5 249.86 168.5C267.72 168.5 267.71 157 285.56 157C303.41 157 303.41 168.5 321.26 168.5C339.11 168.5 339.11 157 357 157" stroke="#4E4E65" stroke-width="2" stroke-miterlimit="10"/>
<path id="Vector_10" d="M0 176.5C17.85 176.5 17.85 188 35.7 188C53.55 188 53.54 176.5 71.39 176.5C89.24 176.5 89.24 188 107.08 188C124.92 188 124.93 176.5 142.77 176.5C160.61 176.5 160.62 188 178.47 188C196.32 188 196.32 176.5 214.16 176.5C232 176.5 232 188 249.86 188C267.72 188 267.71 176.5 285.56 176.5C303.41 176.5 303.41 188 321.26 188C339.11 188 339.11 176.5 357 176.5" stroke="#4E4E65" stroke-width="2" stroke-miterlimit="10"/>
<path id="Vector_11" d="M0 196C17.85 196 17.85 207.5 35.7 207.5C53.55 207.5 53.54 196 71.39 196C89.24 196 89.24 207.5 107.08 207.5C124.92 207.5 124.93 196 142.77 196C160.61 196 160.62 207.5 178.47 207.5C196.32 207.5 196.32 196 214.16 196C232 196 232 207.5 249.86 207.5C267.72 207.5 267.71 196 285.56 196C303.41 196 303.41 207.5 321.26 207.5C339.11 207.5 339.11 196 357 196" stroke="#4E4E65" stroke-width="2" stroke-miterlimit="10"/>
<path id="Vector_12" d="M0 215.5C17.85 215.5 17.85 227 35.7 227C53.55 227 53.54 215.5 71.39 215.5C89.24 215.5 89.24 227 107.08 227C124.92 227 124.93 215.5 142.77 215.5C160.61 215.5 160.62 227 178.47 227C196.32 227 196.32 215.5 214.16 215.5C232 215.5 232 227 249.86 227C267.72 227 267.71 215.5 285.56 215.5C303.41 215.5 303.41 227 321.26 227C339.11 227 339.11 215.5 357 215.5" stroke="#4E4E65" stroke-width="2" stroke-miterlimit="10"/>
<path id="Vector_13" d="M0 235C17.85 235 17.85 246.5 35.7 246.5C53.55 246.5 53.54 235 71.39 235C89.24 235 89.24 246.5 107.08 246.5C124.92 246.5 124.93 235 142.77 235C160.61 235 160.62 246.5 178.47 246.5C196.32 246.5 196.32 235 214.16 235C232 235 232 246.5 249.86 246.5C267.72 246.5 267.71 235 285.56 235C303.41 235 303.41 246.5 321.26 246.5C339.11 246.5 339.11 235 357 235" stroke="#4E4E65" stroke-width="2" stroke-miterlimit="10"/>
</g>
</svg>
